<?xml version="1.0" standalone="no"?><!DOCTYPE svg PUBLIC "-//W3C//DTD SVG 1.1//EN" "http://www.w3.org/Graphics/SVG/1.1/DTD/svg11.dtd"><svg t="1568277233709" class="icon" viewBox="0 0 1024 1024" version="1.1" xmlns="http://www.w3.org/2000/svg" p-id="1399" xmlns:xlink="http://www.w3.org/1999/xlink" width="200" height="200"><defs><style type="text/css"></style></defs><path d="M1002.01984 138.48576L893.62432 30.09024c-12.81536-12.81536-33.68448-12.81536-46.39744 0l-46.39744 46.39744c-12.81536 12.81536-12.81536 33.68448 0 46.39744l108.39552 108.39552c12.81536 12.81536 33.68448 12.81536 46.39744 0l46.39744-46.39744c12.71296-12.71296 12.71296-33.58208 0-46.39744zM354.84672 568.97024l108.39552 108.39552c12.81536 12.81536 33.68448 12.81536 46.39744 0l379.23328-379.23328c12.81536-12.81536 12.81536-33.68448 0-46.39744l-108.39552-108.39552c-12.81536-12.81536-33.68448-12.81536-46.39744 0l-379.23328 379.23328c-12.70784 12.71296-12.70784 33.58208 0 46.39744zM310.51776 575.47776c-14.77632 3.30752-29.55264 18.08384-32.86016 32.86016l-35.85536 161.09568c-3.30752 14.77632 6.09792 24.18176 20.87424 20.87424l161.19808-35.85536c14.77632-3.30752 29.55264-18.08384 32.86016-32.86016l1.34144-6.09792-141.4656-141.46048-6.0928 1.44384z" p-id="1400"></path><path d="M943.43168 415.72864a29.76768 29.76768 0 0 0-29.75744 29.75744v467.68128a39.30624 39.30624 0 0 1-11.67872 28.00128 39.33696 39.33696 0 0 1-28.00128 11.67872H119.04512a39.30624 39.30624 0 0 1-28.00128-11.67872 39.33696 39.33696 0 0 1-11.67872-28.00128V158.22336c0-10.53696 4.13184-20.45952 11.67872-28.00128a39.33696 39.33696 0 0 1 28.00128-11.67872h467.57888a29.7728 29.7728 0 0 0 29.13792-29.75744c0-16.22016-13.02016-29.45024-29.13792-29.75744H119.04512c-54.66112 0-99.3024 44.74368-99.3024 99.3024v754.94912c0 54.66112 44.74368 99.3024 99.3024 99.3024h754.94912c54.66112 0 99.3024-44.74368 99.3024-99.3024V445.5936a29.81376 29.81376 0 0 0-29.86496-29.86496z" p-id="1401"></path></svg>