<?xml version="1.0" standalone="no"?><!DOCTYPE svg PUBLIC "-//W3C//DTD SVG 1.1//EN" "http://www.w3.org/Graphics/SVG/1.1/DTD/svg11.dtd"><svg t="1568277261770" class="icon" viewBox="0 0 1027 1024" version="1.1" xmlns="http://www.w3.org/2000/svg" p-id="1848" xmlns:xlink="http://www.w3.org/1999/xlink" width="200.5859375" height="200"><defs><style type="text/css"></style></defs><path d="M511.692545 0C230.044754 0 0.011151 230.033603 0.011151 511.681394c0 282.285003 229.396391 511.681394 511.681394 511.681394s511.681394-229.396391 511.681394-511.681394c0-281.647791-229.396391-511.681394-511.681394-511.681394z m0 972.385812c-254.247666 0-460.704418-205.81954-460.704418-460.704418C50.988127 257.433727 256.807666 50.976976 511.692545 50.976976c254.247666 0 460.704418 205.81954 460.704418 460.704418 0 254.247666-206.456752 460.704418-460.704418 460.704418z m0 0" p-id="1849"></path><path d="M191.812022 783.13379h290.568762v-100.042315H288.668276V558.835096h193.712508V460.067206H288.668276V335.173615h193.712508V235.131301H191.812022zM530.808911 783.13379h97.493466V335.173615h96.856254v349.192284h-48.428127v100.042315h145.921593v-548.002489H530.808911z" p-id="1850"></path></svg>