<?xml version="1.0" standalone="no"?><!DOCTYPE svg PUBLIC "-//W3C//DTD SVG 1.1//EN" "http://www.w3.org/Graphics/SVG/1.1/DTD/svg11.dtd"><svg t="1568277250956" class="icon" viewBox="0 0 1024 1024" version="1.1" xmlns="http://www.w3.org/2000/svg" p-id="1622" xmlns:xlink="http://www.w3.org/1999/xlink" width="200" height="200"><defs><style type="text/css"></style></defs><path d="M850.9 63H166.3C107.1 63 59 118.5 59 177.7v549.7c0 2.3 0.3 4.2 0.6 5.6l-0.2 197.2c0 15.7 9.2 30.3 23.5 37.2 5.3 2.6 11 3.9 16.6 3.9 8.4 0 16.7-2.9 23.9-8.6l114.8-103.9c1.4-1.3 3.3-5.8 5.2-5.8H848c59.5 0 109-40.8 109-100.3V175.5C957 117.6 908.8 63 850.9 63zM913 752.7c0 36-29 58.3-65 58.3H243.4c-12.3 0-24.1 7.9-33.3 16l-108 95.9-0.1-193.8c-0.1-1.8 1-2.5-1-3.7V177.7c0-35.6 29.7-72.7 65.3-72.7h684.6c34.4 0 62.1 36.1 62.1 70.5v577.2z" p-id="1623"></path><path d="M336.6 466.1m-42.7 0a42.7 42.7 0 1 0 85.4 0 42.7 42.7 0 1 0-85.4 0Z" p-id="1624"></path><path d="M507.5 466.1m-42.7 0a42.7 42.7 0 1 0 85.4 0 42.7 42.7 0 1 0-85.4 0Z" p-id="1625"></path><path d="M678.3 466.1m-42.7 0a42.7 42.7 0 1 0 85.4 0 42.7 42.7 0 1 0-85.4 0Z" p-id="1626"></path></svg>